<svg version="1.1" id="Layer_1" xmlns="http://www.w3.org/2000/svg" xmlns:xlink="http://www.w3.org/1999/xlink" x="0px" y="0px"
	 width="100%" viewBox="0 0 124 124" enable-background="new 0 0 124 124" xml:space="preserve">
<path fill="#000000" opacity="1.000000" stroke="none" 
	d="
M74.000000,125.000000 
	C49.333332,125.000000 25.166666,125.000000 1.000000,125.000000 
	C1.000000,83.666664 1.000000,42.333332 1.000000,1.000000 
	C42.333332,1.000000 83.666664,1.000000 125.000000,1.000000 
	C125.000000,42.333332 125.000000,83.666664 125.000000,125.000000 
	C108.166664,125.000000 91.333336,125.000000 74.000000,125.000000 
M63.996655,111.042313 
	C63.996655,112.293221 63.996655,113.544128 63.996655,114.771111 
	C93.422829,115.445763 116.784431,87.416374 114.363945,63.847954 
	C112.125603,63.847954 109.853615,63.847954 107.581627,63.847954 
	C107.576477,63.635338 107.571335,63.422726 107.566185,63.210110 
	C109.952980,63.079411 112.339775,62.948711 114.904144,62.808289 
	C115.406845,52.918613 111.825714,44.495068 107.118965,36.554920 
	C98.357613,21.774761 84.565872,14.661344 68.095886,12.098865 
	C66.572968,11.861921 64.840469,12.972037 63.156971,13.470990 
	C62.680584,13.199358 61.633373,12.112799 60.576859,12.103683 
	C58.500778,12.085770 56.406292,12.600362 54.342533,13.010858 
	C39.399837,15.983064 27.718102,23.761301 19.721622,36.804798 
	C18.788237,38.327290 18.963533,40.628716 17.868938,41.936199 
	C12.741328,48.061085 13.091353,55.476593 11.696234,63.191799 
	C15.386168,63.191799 18.298504,63.191799 21.210840,63.191799 
	C21.193796,63.476448 21.176750,63.761097 21.159706,64.045746 
	C18.227081,64.045746 15.294456,64.045746 12.382889,64.045746 
	C11.474205,91.734283 37.252514,116.152275 62.509407,114.540024 
	C63.015121,113.042656 63.489365,111.638474 63.996655,111.042313 
z"/>
<path fill="#EFE4B0" opacity="1.000000" stroke="none" 
	d="
M63.980133,110.638306 
	C63.489365,111.638474 63.015121,113.042656 62.509407,114.540024 
	C37.252514,116.152275 11.474205,91.734283 12.382889,64.045746 
	C15.294456,64.045746 18.227081,64.045746 21.159706,64.045746 
	C21.176750,63.761097 21.193796,63.476448 21.210840,63.191799 
	C18.298504,63.191799 15.386168,63.191799 11.696234,63.191799 
	C13.091353,55.476593 12.741328,48.061085 17.868938,41.936199 
	C18.963533,40.628716 18.788237,38.327290 19.721622,36.804798 
	C27.718102,23.761301 39.399837,15.983064 54.342533,13.010858 
	C56.406292,12.600362 58.500778,12.085770 60.576859,12.103683 
	C61.633373,12.112799 62.680584,13.199358 63.156971,13.470990 
	C64.840469,12.972037 66.572968,11.861921 68.095886,12.098865 
	C84.565872,14.661344 98.357613,21.774761 107.118965,36.554920 
	C111.825714,44.495068 115.406845,52.918613 114.904144,62.808289 
	C112.339775,62.948711 109.952980,63.079411 107.566185,63.210110 
	C107.571335,63.422726 107.576477,63.635338 107.581627,63.847954 
	C109.853615,63.847954 112.125603,63.847954 114.363945,63.847954 
	C116.784431,87.416374 93.422829,115.445763 63.996655,114.771111 
	C63.996655,113.544128 63.996655,112.293221 63.980133,110.638306 
M75.541878,64.785698 
	C76.009239,64.494926 76.476601,64.204155 77.529373,63.668446 
	C78.359802,62.460819 79.190231,61.253189 80.724304,60.041908 
	C82.402473,59.202354 84.080635,58.362801 85.758804,57.523247 
	C85.583130,57.233757 85.407463,56.944263 85.231796,56.654770 
	C83.855667,57.152126 82.479546,57.649483 80.404854,58.152809 
	C78.594688,59.029953 76.784515,59.907101 74.145164,60.841831 
	C71.186386,61.239983 68.227615,61.638134 65.036018,61.329914 
	C62.378162,58.518547 59.720306,55.707180 57.022709,52.970432 
	C57.022709,52.970432 57.102749,52.943367 56.902809,52.293526 
	C53.109890,49.530594 49.539051,44.977108 45.466103,44.471943 
	C40.705372,43.881470 38.318466,43.202381 38.507324,37.564198 
	C36.644169,39.157719 35.327030,40.284241 33.780796,41.606705 
	C38.601273,45.617126 43.200329,49.443336 48.327320,53.708763 
	C45.183846,54.624767 42.858501,55.420277 40.476501,55.970543 
	C36.258667,56.944893 38.750481,59.609367 38.474617,62.448517 
	C41.684536,61.918385 44.351299,61.477959 47.770630,61.056820 
	C48.517860,60.999203 49.265091,60.941582 50.745811,60.937016 
	C54.012287,58.791912 56.284542,60.864174 57.557693,63.286873 
	C58.393585,64.877502 57.877354,67.303864 57.607819,69.307678 
	C57.417637,70.721527 56.625401,72.054390 56.101959,73.423409 
	C56.581894,73.779587 57.061825,74.135773 57.541759,74.491959 
	C61.021854,72.336739 64.501945,70.181519 68.000252,68.779816 
	C68.692268,73.079979 70.810646,75.423843 75.891113,74.361504 
	C74.862686,72.084038 73.942635,70.046593 73.529572,67.577301 
	C73.680573,66.707260 73.831573,65.837227 74.498444,64.975525 
	C74.669899,64.963417 74.841347,64.951317 75.541878,64.785698 
z"/>
<path fill="#080806" opacity="1.000000" stroke="none" 
	d="
M67.982040,68.026306 
	C64.501945,70.181519 61.021854,72.336739 57.541759,74.491959 
	C57.061825,74.135773 56.581894,73.779587 56.101959,73.423409 
	C56.625401,72.054390 57.417637,70.721527 57.607819,69.307678 
	C57.877354,67.303864 58.393585,64.877502 57.557693,63.286873 
	C56.284542,60.864174 54.012287,58.791912 50.413971,60.563007 
	C51.098343,57.707932 50.168411,56.709866 47.639381,57.127800 
	C45.478302,57.484921 43.341629,57.989719 40.197857,58.633091 
	C43.123573,59.664543 45.070820,60.351036 47.018066,61.037529 
	C44.351299,61.477959 41.684536,61.918385 38.474617,62.448517 
	C38.750481,59.609367 36.258667,56.944893 40.476501,55.970543 
	C42.858501,55.420277 45.183846,54.624767 48.327320,53.708763 
	C43.200329,49.443336 38.601273,45.617126 33.780796,41.606705 
	C35.327030,40.284241 36.644169,39.157719 38.507324,37.564198 
	C38.318466,43.202381 40.705372,43.881470 45.466103,44.471943 
	C49.539051,44.977108 53.109890,49.530594 56.615410,52.639656 
	C55.552162,52.990269 54.776318,52.994759 53.813469,52.775249 
	C53.083561,52.368511 52.540657,52.185768 51.953018,51.897606 
	C51.908283,51.792187 51.634144,51.771133 51.634144,51.771133 
	C51.634144,51.771133 52.002937,51.997822 52.188580,52.222748 
	C52.915844,52.632088 53.457462,52.816502 54.043663,53.333710 
	C54.985718,54.717606 55.883194,55.768711 56.780670,56.819813 
	C57.033436,56.606674 57.286198,56.393532 57.538960,56.180393 
	C57.380127,55.085533 57.221291,53.990669 57.062454,52.895809 
	C59.720306,55.707180 62.378162,58.518547 65.225533,61.998840 
	C66.594940,64.109077 67.774841,65.550400 68.721100,67.086472 
	C68.318993,67.462914 68.150513,67.744606 67.982040,68.026306 
M60.868748,59.303596 
	C60.947727,59.303963 61.026711,59.304333 60.868748,59.303596 
M47.553909,47.505852 
	C47.553909,47.505852 47.488140,47.537437 47.553909,47.505852 
z"/>
<path fill="#B0AFAD" opacity="1.000000" stroke="none" 
	d="
M68.954735,66.991714 
	C67.774841,65.550400 66.594940,64.109077 65.341942,62.352024 
	C68.227615,61.638134 71.186386,61.239983 74.567398,61.184593 
	C74.992584,62.018726 74.995522,62.510101 74.999229,63.000740 
	C75.000000,63.000000 75.001373,62.997768 74.774216,63.178349 
	C74.358902,63.895016 74.170738,64.431099 73.982574,64.967186 
	C73.831573,65.837227 73.680573,66.707260 72.919441,67.783783 
	C71.191116,67.657425 70.072929,67.324570 68.954735,66.991714 
z"/>
<path fill="#818180" opacity="1.000000" stroke="none" 
	d="
M68.721100,67.086472 
	C70.072929,67.324570 71.191116,67.657425 72.665947,67.999710 
	C73.942635,70.046593 74.862686,72.084038 75.891113,74.361504 
	C70.810646,75.423843 68.692268,73.079979 67.991150,68.403061 
	C68.150513,67.744606 68.318993,67.462914 68.721100,67.086472 
z"/>
<path fill="#1B1B19" opacity="1.000000" stroke="none" 
	d="
M47.394348,61.047176 
	C45.070820,60.351036 43.123573,59.664543 40.197857,58.633091 
	C43.341629,57.989719 45.478302,57.484921 47.639381,57.127800 
	C50.168411,56.709866 51.098343,57.707932 50.047226,60.536480 
	C49.265091,60.941582 48.517860,60.999203 47.394348,61.047176 
z"/>
<path fill="#B7B7B7" opacity="1.000000" stroke="none" 
	d="
M74.998459,63.001476 
	C74.995522,62.510101 74.992584,62.018726 74.981995,61.155800 
	C76.784515,59.907101 78.594688,59.029953 80.614532,58.386612 
	C80.556366,59.095467 80.288513,59.570515 80.020660,60.045563 
	C79.190231,61.253189 78.359802,62.460819 77.052231,63.583191 
	C76.049553,63.332447 75.524002,63.166962 74.998459,63.001476 
z"/>
<path fill="#888885" opacity="1.000000" stroke="none" 
	d="
M80.372482,60.043736 
	C80.288513,59.570515 80.556366,59.095467 80.963821,58.383629 
	C82.479546,57.649483 83.855667,57.152126 85.231796,56.654770 
	C85.407463,56.944263 85.583130,57.233757 85.758804,57.523247 
	C84.080635,58.362801 82.402473,59.202354 80.372482,60.043736 
z"/>
<path fill="#B0AFAD" opacity="1.000000" stroke="none" 
	d="
M74.999229,63.000740 
	C75.524002,63.166962 76.049553,63.332447 76.759537,63.705662 
	C76.476601,64.204155 76.009239,64.494926 75.276230,64.539513 
	C75.007515,63.861473 75.004440,63.429623 75.001373,62.997768 
	C75.001373,62.997768 75.000000,63.000000 74.999229,63.000740 
z"/>
<path fill="#B7B7B7" opacity="1.000000" stroke="none" 
	d="
M74.774216,63.178349 
	C75.004440,63.429623 75.007515,63.861473 75.011688,64.616272 
	C74.841347,64.951317 74.669899,64.963417 74.240509,64.971359 
	C74.170738,64.431099 74.358902,63.895016 74.774216,63.178349 
z"/>
<path fill="#151515" opacity="1.000000" stroke="none" 
	d="
M54.000473,52.999245 
	C54.776318,52.994759 55.552162,52.990269 56.715378,52.964577 
	C57.102749,52.943367 57.022709,52.970432 57.042580,52.933121 
	C57.221291,53.990669 57.380127,55.085533 57.538960,56.180393 
	C57.286198,56.393532 57.033436,56.606674 56.780670,56.819813 
	C55.883194,55.768711 54.985718,54.717606 54.044121,53.333252 
	C54.000000,53.000000 54.000473,52.999245 54.000473,52.999245 
z"/>
<path fill="#151515" opacity="1.000000" stroke="none" 
	d="
M53.999542,53.000458 
	C53.457462,52.816502 52.915844,52.632088 52.187111,52.223839 
	C52.000000,52.000000 51.997749,52.003029 51.997749,52.003029 
	C52.540657,52.185768 53.083561,52.368511 53.813469,52.775249 
	C54.000473,52.999245 54.000000,53.000000 53.999542,53.000458 
z"/>
<path fill="#151515" opacity="1.000000" stroke="none" 
	d="
M60.987221,59.304146 
	C61.026711,59.304333 60.947727,59.303963 60.987221,59.304146 
z"/>
<path fill="#151515" opacity="1.000000" stroke="none" 
	d="
M47.521027,47.521645 
	C47.488140,47.537437 47.553909,47.505852 47.521027,47.521645 
z"/>
<path fill="#151515" opacity="1.000000" stroke="none" 
	d="
M52.001469,51.998909 
	C52.002937,51.997822 51.634144,51.771133 51.634144,51.771133 
	C51.634144,51.771133 51.908283,51.792187 51.953018,51.897606 
	C51.997749,52.003029 52.000000,52.000000 52.001469,51.998909 
z"/>
</svg>